# xmcd CD database file
#
# Track frame offsets:
#	150
#	16855
#	37425
#	56539
#	81840
#	102197
#	110475
#	128979
#
# Disc length: 1992 seconds
#
# Revision: 0
# Processed by: cddbd v1.5.1PL2 Copyright (c) Steve Scherf et al.
# Submitted via: CDex 1.51
#
DISCID=6707c608
DTITLE=大久保海太  - ROCK MARINE
DYEAR=2001
DGENRE=Rock
TTITLE0=珊瑚
TTITLE1=眠るエレキ
TTITLE2=夏は、いつ（Album Mix）
TTITLE3=海より君へ愛を込めて
TTITLE4=オリーブへ
TTITLE5=SURF LIFE
TTITLE6=優しい言葉を〜辻堂ver．〜
TTITLE7=帰りたくない
EXTD=YEAR: 2001
EXTT0=
EXTT1=
EXTT2=
EXTT3=
EXTT4=
EXTT5=
EXTT6=
EXTT7=
PLAYORDER=
